<svg xmlns="http://www.w3.org/2000/svg" width="500" height="500" viewBox="0 0 500 500">
<g>
<path d="M 266.63 417.90 C254.69,416.64 248.18,414.41 243.88,410.11 C238.91,405.15 238.42,401.77 239.85,382.50 C240.98,367.23 241.29,358.98 240.75,359.02 C240.61,359.03 236.90,359.69 232.50,360.48 C228.10,361.28 220.84,361.95 216.36,361.97 C209.55,361.99 208.10,362.29 207.52,363.75 C207.14,364.71 203.90,373.60 200.32,383.50 C192.74,404.43 190.51,408.71 185.31,412.21 C178.98,416.48 174.47,417.47 162.00,417.32 C144.75,417.11 128.36,412.09 123.10,405.40 C116.05,396.43 119.19,382.42 129.53,376.79 C132.26,375.29 136.44,373.78 138.82,373.41 C143.97,372.63 144.16,372.25 146.41,358.47 C147.31,352.99 148.27,347.50 148.54,346.28 C149.02,344.07 148.96,344.06 139.59,344.67 C128.32,345.41 119.90,343.99 112.04,340.01 C99.25,333.54 91.56,322.84 90.35,309.80 L 89.72 303.11 L 84.72 302.03 C76.36,300.24 66.46,294.37 60.78,287.84 C57.99,284.63 54.95,282.00 54.03,282.00 C50.24,282.00 42.83,278.61 38.72,274.98 C35.94,272.54 33.26,268.79 31.45,264.81 C28.84,259.10 28.56,257.46 28.54,247.50 C28.50,233.98 30.29,228.12 36.56,221.15 C41.94,215.17 47.45,212.43 56.02,211.51 L 62.50 210.81 L 62.55 203.16 C62.62,190.47 68.04,183.18 78.11,182.22 C87.55,181.31 91.62,187.08 90.60,199.95 C90.01,207.44 90.02,207.47 91.59,204.00 C100.72,183.79 106.45,176.05 117.41,169.13 C125.33,164.13 133.94,161.15 143.22,160.22 L 150.29 159.50 L 153.45 152.00 C162.17,131.30 177.79,115.84 197.79,108.15 C217.80,100.45 237.20,101.38 256.50,110.96 C277.10,121.19 290.28,138.69 296.98,164.75 L 298.08 169.00 L 305.81 169.00 C321.38,169.00 333.46,174.42 346.00,187.05 C357.28,198.42 362.00,209.33 361.95,224.00 C361.94,228.12 361.23,234.20 360.39,237.50 C359.54,240.80 358.61,244.46 358.33,245.64 C357.89,247.43 358.81,248.31 363.98,251.07 C378.77,258.95 387.18,276.11 384.95,293.87 C382.98,309.58 372.96,323.95 359.23,330.73 C352.15,334.23 350.94,334.50 341.07,334.82 C332.59,335.09 329.24,334.76 324.13,333.15 L 317.77 331.14 L 311.63 337.44 C308.26,340.91 304.64,344.20 303.59,344.76 C302.04,345.57 301.14,348.73 298.91,361.13 C297.40,369.58 296.29,376.62 296.46,376.79 C296.62,376.95 298.70,378.08 301.07,379.29 C307.97,382.82 311.33,387.86 311.81,395.38 C312.39,404.41 309.29,409.70 300.90,414.03 C294.44,417.36 278.53,419.16 266.63,417.90 ZM 202.23 355.04 C211.94,357.67 229.44,357.24 239.00,354.15 C246.64,351.68 256.49,346.06 262.67,340.63 L 267.08 336.76 L 272.94 339.89 C287.60,347.70 303.20,343.72 312.06,329.91 C313.58,327.54 314.39,326.17 315.57,325.66 C317.21,324.95 319.56,325.90 325.50,328.10 C333.34,331.01 345.23,331.25 353.10,328.66 C363.97,325.09 373.76,315.27 378.12,303.58 C381.54,294.42 381.39,280.58 377.81,272.82 C373.26,263.01 363.54,254.25 355.26,252.52 C353.48,252.15 351.81,251.51 351.56,251.09 C351.30,250.68 352.17,247.67 353.49,244.41 C364.25,217.78 353.05,191.18 325.50,177.94 C318.87,174.75 317.87,174.57 306.57,174.39 L 294.65 174.21 L 293.21 169.35 C288.75,154.23 287.55,150.93 284.41,145.18 C270.49,119.67 250.01,108.11 220.67,109.22 C201.11,109.97 188.20,115.72 174.12,129.95 C166.47,137.69 159.87,148.42 155.49,160.25 L 153.73 165.00 L 147.81 165.00 C133.75,165.00 121.10,170.36 111.36,180.45 C103.38,188.72 99.21,196.82 96.03,210.30 C94.68,216.01 94.70,216.19 97.80,222.80 C103.82,235.66 104.12,246.46 98.78,258.29 C97.09,262.03 96.16,263.02 94.56,262.79 C92.04,262.43 92.10,260.60 94.92,252.59 C98.60,242.14 97.29,232.46 90.68,221.18 C85.50,212.34 84.66,208.91 85.46,199.81 C86.32,189.91 84.94,187.00 79.38,187.00 C71.91,187.00 65.91,197.21 67.67,206.90 C68.44,211.11 68.93,211.71 73.40,213.99 C82.06,218.40 86.23,228.72 82.73,237.09 C81.78,239.37 81.43,242.46 81.75,245.77 C82.13,249.74 81.77,251.83 80.14,254.95 C78.43,258.24 78.24,259.44 79.14,261.42 C81.94,267.56 77.33,276.06 69.22,279.72 C66.08,281.14 63.31,282.46 63.07,282.66 C62.29,283.32 68.38,289.04 73.06,292.04 C79.90,296.43 86.20,297.98 97.25,297.99 C106.16,298.00 107.00,298.16 107.00,299.90 C107.00,302.02 102.58,304.00 97.85,304.00 C95.28,304.00 95.00,304.33 95.00,307.34 C95.00,309.18 95.82,313.19 96.83,316.24 C104.32,338.93 136.70,348.13 157.25,333.40 C159.87,331.53 162.50,330.00 163.10,330.00 C163.71,330.00 167.42,333.28 171.35,337.28 C179.54,345.62 190.35,351.83 202.23,355.04 ZM 362.32 186.99 C358.95,185.64 358.00,182.82 358.00,174.15 L 358.00 166.17 L 350.25 165.53 C321.87,163.18 314.69,159.51 312.52,146.24 C311.81,141.93 312.84,125.50 315.59,97.00 C317.30,79.28 319.06,74.28 324.87,70.52 C331.27,66.39 333.93,66.39 399.83,70.51 C442.41,73.17 448.16,74.28 452.10,80.66 C456.25,87.37 456.23,88.89 451.48,135.50 C450.59,144.30 449.44,153.12 448.93,155.10 C447.50,160.68 443.91,165.28 438.99,167.84 C434.57,170.15 434.18,170.18 412.50,169.60 L 390.50 169.02 L 381.00 176.65 C371.90,183.95 366.07,188.06 365.00,187.93 C364.73,187.90 363.52,187.48 362.32,186.99 ZM 363.35 181.47 C363.87,182.84 364.88,182.47 369.74,179.17 C372.91,177.01 378.32,172.72 381.77,169.64 L 388.03 164.04 L 409.83 164.67 C421.83,165.02 432.81,165.01 434.24,164.65 C438.35,163.62 442.87,159.20 443.93,155.18 C444.46,153.15 445.36,146.32 445.94,140.00 C446.51,133.68 447.66,121.53 448.48,113.00 C451.53,81.44 450.77,79.98 430.39,78.07 C424.40,77.51 411.40,76.56 401.50,75.97 C391.60,75.38 377.42,74.46 370.00,73.94 C362.58,73.42 351.10,72.89 344.50,72.76 C334.03,72.56 332.04,72.79 329.00,74.54 C324.15,77.34 322.01,82.33 320.98,93.23 C318.02,124.77 316.88,141.74 317.47,145.65 C318.92,155.34 324.23,157.87 347.63,160.04 C355.26,160.75 362.01,161.71 362.64,162.19 C363.41,162.78 363.60,165.78 363.25,171.45 C362.96,176.07 363.01,180.58 363.35,181.47 ZM 147.00 411.03 C157.08,413.14 170.65,413.48 176.35,411.78 C183.22,409.72 188.18,403.85 191.79,393.50 C193.52,388.55 196.74,379.37 198.94,373.11 C201.14,366.85 202.74,361.39 202.49,360.99 C202.25,360.59 200.57,359.96 198.77,359.61 C191.33,358.12 177.39,350.19 169.91,343.19 L 162.54 336.28 L 158.80 338.75 C154.43,341.64 154.83,340.53 151.52,359.00 C148.14,377.92 148.11,377.99 142.77,378.02 C134.17,378.07 126.33,383.74 125.03,390.86 C124.29,394.88 125.63,400.64 127.94,403.42 C130.00,405.91 138.27,409.21 147.00,411.03 ZM 268.50 413.42 C275.06,414.31 291.27,412.87 296.44,410.94 C306.78,407.07 310.34,399.46 306.00,390.50 C303.92,386.20 298.07,382.00 294.17,382.00 C290.39,382.00 290.40,381.61 295.06,357.70 C295.90,353.42 296.40,351.30 295.56,350.21 C294.68,349.06 292.30,349.05 287.24,348.85 C280.25,348.57 277.41,347.97 273.13,345.85 L 267.77 343.19 L 262.13 347.45 C259.04,349.79 254.48,352.82 252.01,354.18 C246.72,357.10 246.87,356.49 244.97,382.70 C243.96,396.62 243.96,400.50 245.00,402.99 C247.12,408.11 254.91,411.57 268.50,413.42 ZM 48.50 275.20 C56.71,279.07 70.67,275.63 73.14,269.13 C74.46,265.67 73.44,260.71 70.95,258.46 C69.42,257.07 67.22,256.62 61.72,256.56 C54.72,256.48 54.50,256.40 54.50,253.99 C54.50,251.59 54.77,251.49 61.72,251.21 C66.71,251.00 69.84,251.38 71.87,252.43 C74.51,253.80 74.87,253.79 75.40,252.39 C76.65,249.15 75.97,243.18 74.09,240.86 C72.40,238.78 71.18,238.46 63.63,238.15 C54.44,237.77 51.60,236.40 54.00,233.50 C54.89,232.43 57.23,232.00 62.15,232.00 C66.03,232.00 70.64,232.66 72.65,233.50 C77.76,235.63 78.00,235.50 78.00,230.53 C78.00,224.76 73.73,219.55 67.66,217.90 C62.29,216.45 50.40,217.30 46.30,219.44 C38.62,223.42 34.97,230.90 34.26,244.06 C33.41,260.04 38.10,270.29 48.50,275.20 ZM 240.56 270.63 C233.78,273.78 226.19,273.78 219.50,270.62 C209.39,265.84 204.56,257.37 204.52,244.36 C204.51,239.57 204.31,236.68 205.63,234.94 C207.80,232.08 214.09,232.33 232.10,232.40 C250.85,232.48 256.54,232.46 258.25,235.06 C259.03,236.24 259.00,237.95 258.99,240.44 C258.96,252.34 250.67,265.92 240.56,270.63 ZM 220.35 265.46 C224.60,267.32 235.38,267.37 238.90,265.55 C240.44,264.75 243.15,262.46 244.91,260.45 C247.90,257.05 248.01,256.67 246.51,255.01 C245.62,254.03 242.11,251.95 238.70,250.39 C233.76,248.13 230.71,247.47 223.72,247.17 C209.77,246.58 208.25,247.56 211.41,255.13 C213.48,260.07 216.78,263.89 220.35,265.46 ZM 203.81 221.18 C202.01,222.86 201.15,223.70 200.21,223.79 C199.28,223.89 198.28,223.25 196.19,221.97 C186.59,216.12 189.05,197.00 199.40,197.00 C208.78,197.00 211.83,213.69 203.81,221.18 ZM 268.06 221.97 C265.81,223.17 264.28,223.19 261.47,222.05 C258.51,220.85 257.26,219.01 255.87,213.80 C252.59,201.54 263.21,191.52 270.41,200.08 C272.56,202.64 273.00,204.16 273.00,209.13 C273.00,215.56 271.17,220.30 268.06,221.97 ZM 280.39 175.43 C279.52,177.69 277.70,177.37 275.00,174.50 C272.09,171.40 267.14,169.95 262.80,170.93 C258.61,171.87 257.00,171.32 257.00,168.95 C257.00,166.22 260.05,165.00 266.86,165.00 C271.85,165.00 273.36,165.43 275.95,167.61 C279.74,170.80 281.19,173.35 280.39,175.43 ZM 187.00 173.88 C187.00,174.98 183.56,176.70 182.25,176.26 C180.36,175.62 180.75,172.65 183.04,170.18 C187.26,165.66 196.50,163.62 201.32,166.15 C206.95,169.12 204.99,172.14 197.96,171.31 C193.40,170.77 187.00,172.27 187.00,173.88 Z" fill="rgba(0,0,0,1)"/>
<path d="M 363.35 181.47 C363.01,180.58 362.96,176.07 363.25,171.45 C363.60,165.78 363.41,162.78 362.64,162.19 C362.01,161.71 355.26,160.75 347.63,160.04 C324.23,157.87 318.92,155.34 317.47,145.65 C316.88,141.74 318.02,124.77 320.98,93.23 C322.01,82.33 324.15,77.34 329.00,74.54 C332.04,72.79 334.03,72.56 344.50,72.76 C351.10,72.89 362.58,73.42 370.00,73.94 C377.42,74.46 391.60,75.38 401.50,75.97 C411.40,76.56 424.40,77.51 430.39,78.07 C450.77,79.98 451.53,81.44 448.48,113.00 C447.66,121.53 446.51,133.68 445.94,140.00 C445.36,146.32 444.46,153.15 443.93,155.18 C442.87,159.20 438.35,163.62 434.24,164.65 C432.81,165.01 421.83,165.02 409.83,164.67 L 388.03 164.04 L 381.77 169.64 C378.32,172.72 372.91,177.01 369.74,179.17 C364.88,182.47 363.87,182.84 363.35,181.47 Z" fill="rgba(67,178,240,1)"/>
<path d="M 316.99 267.41 C305.50,273.66 292.46,271.40 283.29,261.57 C272.47,249.99 272.29,234.57 282.82,222.86 C294.78,209.55 313.03,209.04 325.20,221.67 C338.53,235.51 334.52,257.87 316.99,267.41 ZM 170.16 267.32 C165.11,270.07 155.09,271.60 150.50,270.34 C123.09,262.78 120.04,227.03 145.80,215.24 C150.60,213.04 152.20,212.80 158.99,213.26 C167.42,213.84 172.19,216.09 178.11,222.27 C191.08,235.81 187.15,258.07 170.16,267.32 ZM 220.35 265.46 C216.78,263.89 213.48,260.07 211.41,255.13 C208.25,247.56 209.77,246.58 223.72,247.17 C230.71,247.47 233.76,248.13 238.70,250.39 C242.11,251.95 245.62,254.03 246.51,255.01 C248.01,256.67 247.90,257.05 244.91,260.45 C243.15,262.46 240.44,264.75 238.90,265.55 C235.38,267.37 224.60,267.32 220.35,265.46 Z" fill="rgba(241,167,151,1)"/>
<path d="M 268.50 413.42 C254.91,411.57 247.12,408.11 245.00,402.99 C243.96,400.50 243.96,396.62 244.97,382.70 C246.87,356.49 246.72,357.10 252.01,354.18 C254.48,352.82 259.04,349.79 262.13,347.45 L 267.77 343.19 L 273.13 345.85 C277.41,347.97 280.25,348.57 287.24,348.85 C297.09,349.24 296.78,348.90 295.06,357.70 C290.40,381.61 290.39,382.00 294.17,382.00 C298.07,382.00 303.92,386.20 306.00,390.50 C310.34,399.46 306.78,407.07 296.44,410.94 C291.27,412.87 275.06,414.31 268.50,413.42 ZM 147.00 411.03 C138.27,409.21 130.00,405.91 127.94,403.42 C125.63,400.64 124.29,394.88 125.03,390.86 C126.33,383.74 134.17,378.07 142.77,378.02 C148.11,377.99 148.14,377.92 151.52,359.00 C154.83,340.53 154.43,341.64 158.80,338.75 L 162.54 336.28 L 169.91 343.19 C177.39,350.19 191.33,358.12 198.77,359.61 C200.57,359.96 202.25,360.59 202.49,360.99 C202.74,361.39 201.14,366.85 198.94,373.11 C196.74,379.37 193.52,388.55 191.79,393.50 C188.18,403.85 183.22,409.72 176.35,411.78 C170.65,413.48 157.08,413.14 147.00,411.03 ZM 202.23 355.04 C190.35,351.83 179.54,345.62 171.35,337.28 C167.42,333.28 163.71,330.00 163.10,330.00 C162.50,330.00 159.87,331.53 157.25,333.40 C136.70,348.13 104.32,338.93 96.83,316.24 C95.82,313.19 95.00,309.18 95.00,307.34 C95.00,304.33 95.28,304.00 97.85,304.00 C102.58,304.00 107.00,302.02 107.00,299.90 C107.00,298.16 106.16,298.00 97.25,297.99 C86.20,297.98 79.90,296.43 73.06,292.04 C68.38,289.04 62.29,283.32 63.07,282.66 C63.31,282.46 66.08,281.14 69.22,279.72 C77.33,276.06 81.94,267.56 79.14,261.42 C78.24,259.44 78.43,258.24 80.14,254.95 C81.77,251.83 82.13,249.74 81.75,245.77 C81.43,242.46 81.78,239.37 82.73,237.09 C86.23,228.72 82.06,218.40 73.40,213.99 C68.93,211.71 68.44,211.11 67.67,206.90 C65.91,197.21 71.91,187.00 79.38,187.00 C84.94,187.00 86.32,189.91 85.46,199.81 C84.66,208.91 85.50,212.34 90.68,221.18 C97.29,232.46 98.60,242.14 94.92,252.59 C92.10,260.60 92.04,262.43 94.56,262.79 C96.16,263.02 97.09,262.03 98.78,258.29 C104.12,246.46 103.82,235.66 97.80,222.80 C94.70,216.19 94.68,216.01 96.03,210.30 C99.21,196.82 103.38,188.72 111.36,180.45 C121.10,170.36 133.75,165.00 147.81,165.00 L 153.73 165.00 L 155.49 160.25 C159.87,148.42 166.47,137.69 174.12,129.95 C188.20,115.72 201.11,109.97 220.67,109.22 C250.01,108.11 270.49,119.67 284.41,145.18 C287.55,150.93 288.75,154.23 293.21,169.35 L 294.65 174.21 L 306.57 174.39 C317.87,174.57 318.87,174.75 325.50,177.94 C353.05,191.18 364.25,217.78 353.49,244.41 C352.17,247.67 351.30,250.68 351.56,251.09 C351.81,251.51 353.48,252.15 355.26,252.52 C363.54,254.25 373.26,263.01 377.81,272.82 C381.39,280.58 381.54,294.42 378.12,303.58 C373.76,315.27 363.97,325.09 353.10,328.66 C345.23,331.25 333.34,331.01 325.50,328.10 C315.27,324.31 315.69,324.25 312.06,329.91 C303.20,343.72 287.60,347.70 272.94,339.89 L 267.08 336.76 L 262.67 340.63 C256.49,346.06 246.64,351.68 239.00,354.15 C229.44,357.24 211.94,357.67 202.23,355.04 ZM 240.56 270.63 C250.67,265.92 258.96,252.34 258.99,240.44 C259.01,232.42 259.31,232.51 232.10,232.40 C203.14,232.28 204.49,231.70 204.52,244.36 C204.56,257.37 209.39,265.84 219.50,270.62 C226.19,273.78 233.78,273.78 240.56,270.63 ZM 170.16 267.32 C187.15,258.07 191.08,235.81 178.11,222.27 C172.19,216.09 167.42,213.84 158.99,213.26 C152.20,212.80 150.60,213.04 145.80,215.24 C120.04,227.03 123.09,262.78 150.50,270.34 C155.09,271.60 165.11,270.07 170.16,267.32 ZM 316.99 267.41 C334.52,257.87 338.53,235.51 325.20,221.67 C313.03,209.04 294.78,209.55 282.82,222.86 C272.29,234.57 272.47,249.99 283.29,261.57 C292.46,271.40 305.50,273.66 316.99,267.41 ZM 203.81 221.18 C211.83,213.69 208.78,197.00 199.40,197.00 C189.05,197.00 186.59,216.12 196.19,221.97 C200.37,224.52 200.21,224.54 203.81,221.18 ZM 268.06 221.97 C271.17,220.30 273.00,215.56 273.00,209.13 C273.00,204.16 272.56,202.64 270.41,200.08 C263.21,191.52 252.59,201.54 255.87,213.80 C257.26,219.01 258.51,220.85 261.47,222.05 C264.28,223.19 265.81,223.17 268.06,221.97 ZM 187.00 173.88 C187.00,172.27 193.40,170.77 197.96,171.31 C204.99,172.14 206.95,169.12 201.32,166.15 C196.50,163.62 187.26,165.66 183.04,170.18 C180.75,172.65 180.36,175.62 182.25,176.26 C183.56,176.70 187.00,174.98 187.00,173.88 ZM 280.39 175.43 C281.19,173.35 279.74,170.80 275.95,167.61 C273.36,165.43 271.85,165.00 266.86,165.00 C260.05,165.00 257.00,166.22 257.00,168.95 C257.00,171.32 258.61,171.87 262.80,170.93 C267.14,169.95 272.09,171.40 275.00,174.50 C277.70,177.37 279.52,177.69 280.39,175.43 ZM 48.50 275.20 C38.10,270.29 33.41,260.04 34.26,244.06 C34.97,230.90 38.62,223.42 46.30,219.44 C50.40,217.30 62.29,216.45 67.66,217.90 C73.73,219.55 78.00,224.76 78.00,230.53 C78.00,235.50 77.76,235.63 72.65,233.50 C70.64,232.66 66.03,232.00 62.15,232.00 C57.23,232.00 54.89,232.43 54.00,233.50 C51.60,236.40 54.44,237.77 63.63,238.15 C71.18,238.46 72.40,238.78 74.09,240.86 C75.97,243.18 76.65,249.15 75.40,252.39 C74.87,253.79 74.51,253.80 71.87,252.43 C69.84,251.38 66.71,251.00 61.72,251.21 C54.77,251.49 54.50,251.59 54.50,253.99 C54.50,256.40 54.72,256.48 61.72,256.56 C67.22,256.62 69.42,257.07 70.95,258.46 C73.44,260.71 74.46,265.67 73.14,269.13 C70.67,275.63 56.71,279.07 48.50,275.20 Z" fill="rgba(254,249,243,1)"/>
</g>
</svg>